<svg xmlns="http://www.w3.org/2000/svg" width="151" height="172" viewBox="0 0 151 172" fill="none">
<path d="M144.518 39.2113L82.214 3.03438C80.1932 1.87961 77.9919 1.28418 75.7545 1.28418C73.5352 1.28418 71.3158 1.87961 69.3311 3.03438L7.00937 39.2474C3.05788 41.5569 0.585938 45.8151 0.585938 50.4162V122.842C0.585938 127.443 3.05788 131.756 7.00937 134.047L18.2143 140.561L34.5616 150.052L38.2243 139.965L71.8932 47.1143C72.2 46.2121 71.5504 45.2378 70.54 45.2378H54.752C53.5792 45.2378 52.4966 45.9775 52.1177 47.0782L21.8951 130.474L12.2961 124.899C11.5743 124.484 11.1232 123.708 11.1232 122.878V50.4162C11.1232 49.5862 11.5743 48.8103 12.2961 48.3953L74.6178 12.1824C74.9606 11.9658 75.3756 11.8756 75.7725 11.8756C76.1875 11.8756 76.5665 11.9839 76.9454 12.1824L139.285 48.3953C140.007 48.8103 140.458 49.5862 140.458 50.4162V122.842C140.458 123.672 140.007 124.448 139.285 124.863L129.794 130.384L104.822 61.4768C104.371 60.2137 102.639 60.2137 102.188 61.4768L93.9602 84.1392C93.7257 84.7707 93.7257 85.4744 93.9602 86.0879L113.447 139.875L106.969 143.646L91.0192 99.6023C90.5681 98.3393 88.8359 98.3393 88.3848 99.6023L80.1571 122.265C79.9225 122.896 79.9225 123.6 80.1571 124.213L90.6403 153.137L76.9634 161.094C76.6206 161.311 76.2056 161.401 75.7906 161.401C75.3756 161.401 74.9967 161.293 74.6178 161.094L61.1033 153.227L99.5537 47.1323C99.8965 46.1941 99.2108 45.2017 98.2365 45.2017H82.4486C81.2758 45.2017 80.1932 45.9414 79.8142 47.0421L44.756 143.718L41.0932 153.805L57.4405 163.295L69.3672 170.224C71.3519 171.379 73.5713 171.974 75.7906 171.974C78.0099 171.974 80.2292 171.379 82.214 170.224L144.554 134.011C148.541 131.701 150.977 127.443 150.977 122.806V50.4162C150.977 45.8151 148.505 41.5028 144.554 39.2113H144.518Z" fill="white"/>
</svg>