<?xml version="1.0" standalone="no"?>
<!DOCTYPE svg PUBLIC "-//W3C//DTD SVG 20010904//EN"
 "http://www.w3.org/TR/2001/REC-SVG-20010904/DTD/svg10.dtd">
<svg version="1.0" xmlns="http://www.w3.org/2000/svg"
 width="735.823910pt" height="388.545063pt" viewBox="0 0 735.823910 388.545063"
 preserveAspectRatio="xMidYMid meet">
<metadata>
Created by potrace 1.16, written by Peter Selinger 2001-2019
</metadata>
<rect width="100%" height="100%" fill="none"/><g transform="translate(-7.217511,405.779758) scale(0.100000,-0.100000)"
fill="#ffffff" stroke="none">
<path d="M1798 4049 c-430 -42 -842 -238 -1148 -548 -301 -304 -486 -664 -555
-1081 -25 -154 -31 -424 -11 -560 78 -530 310 -943 721 -1283 108 -89 335
-218 495 -280 396 -155 886 -166 1300 -28 135 45 358 157 475 239 266 185 495
448 625 720 24 50 47 92 50 92 3 0 34 -57 70 -127 192 -377 514 -681 905 -855
474 -212 1031 -221 1510 -26 569 233 990 720 1136 1313 126 515 51 1029 -217
1487 -254 433 -705 771 -1187 887 -194 47 -261 55 -447 55 -245 1 -433 -30
-660 -109 -263 -91 -537 -269 -741 -481 -117 -122 -269 -344 -338 -492 -14
-29 -27 -52 -31 -52 -3 0 -21 30 -39 68 -103 210 -277 437 -456 595 -395 347
-927 517 -1457 466z m432 -83 c648 -87 1206 -513 1457 -1113 58 -139 70 -143
109 -40 86 229 283 517 465 681 172 156 423 309 613 375 241 85 441 116 686
108 197 -7 344 -32 523 -91 549 -180 993 -630 1176 -1194 72 -221 86 -314 86
-587 -1 -268 -10 -343 -70 -540 -168 -552 -569 -985 -1113 -1199 -194 -76
-520 -130 -722 -120 -606 32 -1137 334 -1468 835 -54 82 -134 237 -172 334
-46 115 -55 113 -110 -22 -174 -433 -499 -773 -932 -978 -184 -87 -403 -143
-642 -165 -291 -26 -662 47 -937 185 -449 225 -784 611 -938 1082 -71 216 -86
314 -86 583 0 183 4 256 18 330 91 489 342 897 733 1191 256 193 549 309 889
352 76 10 340 5 435 -7z"/>
<path d="M5120 2656 c0 -459 -2 -515 -16 -520 -9 -3 -78 -6 -155 -6 l-139 0 0
-55 0 -55 155 0 156 0 -3 -127 -3 -128 -150 -5 -150 -5 -3 -47 -3 -48 155 0
156 0 2 -327 3 -328 55 0 55 0 3 327 2 328 363 2 362 3 0 45 0 45 -360 5 -360
5 -3 127 -3 126 383 4 383 4 82 27 c246 82 396 288 395 542 0 234 -134 436
-345 522 -109 45 -207 53 -629 53 l-388 0 0 -514z m940 375 c171 -60 266 -168
306 -351 52 -230 -99 -468 -337 -531 -47 -13 -722 -26 -765 -15 l-24 6 0 461
0 461 378 -4 c362 -4 380 -5 442 -27z"/>
<path d="M1199 3044 c-5 -7 -8 -75 -7 -155 l3 -144 300 -5 300 -5 3 -317 2
-318 190 0 c174 0 190 1 191 18 0 9 1 152 2 317 l2 300 303 3 302 2 0 155 c0
117 -3 155 -12 156 -7 0 -363 1 -791 2 -571 1 -781 -1 -788 -9z"/>
<path d="M1555 2404 c-279 -30 -473 -77 -561 -137 -209 -141 95 -294 668 -336
64 -5 121 -12 127 -15 8 -5 11 -136 11 -437 l0 -429 193 2 192 3 3 433 c2 403
3 432 20 432 9 0 82 7 162 15 357 35 609 109 668 195 77 115 -127 217 -528
264 -240 28 -269 29 -276 11 -4 -9 -3 -20 2 -25 5 -5 70 -14 144 -20 276 -23
501 -75 562 -129 43 -39 33 -63 -45 -100 -321 -157 -1451 -161 -1799 -8 -68
30 -94 62 -75 92 40 62 261 118 577 145 74 7 139 15 143 19 4 4 5 15 1 24 -7
20 -13 20 -189 1z"/>
<path d="M3365 2095 c-30 -30 -31 -54 -4 -89 40 -50 119 -21 119 44 0 64 -70
91 -115 45z"/>
<path d="M3726 2099 c-52 -41 -24 -119 44 -119 31 0 44 8 59 37 17 33 14 51
-14 78 -30 30 -54 31 -89 4z"/>
<path d="M4100 2113 c-42 -17 -53 -80 -19 -114 28 -28 76 -22 102 13 18 24 19
30 7 58 -16 39 -53 57 -90 43z"/>
</g>
</svg>
