<?xml version="1.0" standalone="no"?>
<!DOCTYPE svg PUBLIC "-//W3C//DTD SVG 20010904//EN"
 "http://www.w3.org/TR/2001/REC-SVG-20010904/DTD/svg10.dtd">
<svg version="1.0" xmlns="http://www.w3.org/2000/svg"
 width="309.147797pt" height="144.859221pt" viewBox="0 0 309.147797 144.859221"
 preserveAspectRatio="xMidYMid meet">
<metadata>
Created by potrace 1.16, written by Peter Selinger 2001-2019
</metadata>
<rect width="100%" height="100%" fill="none"/><g transform="translate(-8.181291,146.963747) scale(0.100000,-0.100000)"
fill="#ffffff" stroke="none">
<path d="M685 1459 c-328 -55 -585 -344 -602 -679 -14 -267 104 -496 334 -643
282 -183 645 -142 888 98 98 96 128 143 325 490 84 149 172 300 195 336 180
279 488 420 765 350 253 -64 426 -222 507 -466 24 -70 27 -96 27 -205 0 -109
-3 -135 -27 -207 -49 -148 -167 -293 -306 -377 -261 -159 -617 -110 -830 114
-30 32 -73 89 -96 126 -43 70 -75 94 -75 55 0 -29 113 -194 163 -236 141 -122
290 -185 453 -193 126 -6 219 10 318 53 206 89 356 258 426 480 30 95 31 257
2 367 -37 138 -111 259 -219 357 -81 75 -234 154 -338 176 -249 52 -515 -37
-697 -234 -76 -82 -145 -187 -283 -436 -161 -288 -191 -340 -242 -412 -81
-115 -208 -214 -342 -266 -64 -25 -94 -31 -189 -35 -146 -6 -213 8 -341 70
-88 42 -117 62 -181 127 -166 169 -236 408 -181 623 63 245 223 419 461 499
211 71 430 28 628 -124 55 -41 134 -138 184 -222 26 -43 48 -52 48 -20 0 19
-53 108 -101 170 -147 193 -433 305 -674 264z"/>
<path d="M2339 1018 c-51 -95 -108 -198 -126 -228 -18 -30 -33 -61 -33 -69 0
-13 53 -102 191 -323 40 -65 59 -87 73 -85 26 3 198 279 183 293 -8 9 -85 -89
-132 -168 -26 -44 -49 -77 -51 -75 -17 16 -174 280 -170 285 3 3 42 -16 87
-42 77 -45 82 -47 105 -31 30 20 32 39 2 31 -17 -4 -51 12 -125 57 -57 34
-103 67 -103 74 0 19 194 374 204 375 9 0 48 -66 158 -272 48 -90 54 -98 70
-82 9 9 -1 37 -46 124 -96 187 -166 308 -180 308 -7 0 -55 -78 -107 -172z"/>
<path d="M688 1083 l-3 -38 -57 -3 c-50 -3 -58 -6 -58 -22 0 -16 7 -20 30 -20
l30 0 -2 -247 -3 -248 -27 -3 c-30 -4 -38 -26 -12 -36 9 -3 35 -6 59 -6 43 0
44 0 47 -37 2 -27 8 -39 21 -41 14 -3 17 4 17 37 0 37 3 41 24 41 21 0 25 -5
28 -37 4 -52 32 -52 36 -2 3 36 5 37 50 44 59 9 93 26 125 65 54 63 48 152
-15 214 l-40 40 21 37 c12 20 21 49 21 63 0 65 -58 137 -120 151 -23 5 -30 12
-30 30 0 34 -10 55 -26 55 -8 0 -14 -10 -14 -24 0 -39 -11 -56 -35 -56 -20 0
-24 6 -27 37 -2 26 -8 39 -20 41 -13 2 -17 -5 -20 -35z m176 -97 c42 -18 66
-51 66 -94 0 -76 -42 -102 -165 -102 l-85 0 0 105 0 105 75 0 c42 0 90 -6 109
-14z m67 -253 c41 -24 62 -83 49 -133 -19 -72 -87 -103 -218 -98 l-77 3 -3
109 c-1 61 0 116 2 123 8 21 210 18 247 -4z"/>
</g>
</svg>
