<svg width="48" height="48" viewBox="0 0 16 16" xmlns="http://www.w3.org/2000/svg">
    <path fill-rule="evenodd" clip-rule="evenodd" d="M2.733 11.784c-.708-1.191-1.221-2.408-1.221-3.823 0-3.566 2.905-6.457 6.488-6.457 3.583 0 6.488 2.891 6.488 6.457 0 3.565-2.905 6.456-6.488 6.456-1.332 0-2.496-.452-3.64-1.079-.734.18-1.468.362-2.2.55.195-.7.387-1.402.573-2.104zM0 16s2.944-.768 4.147-1.06A7.995 7.995 0 008 15.92c4.418 0 8-3.564 8-7.96S12.418 0 8 0 0 3.564 0 7.96c0 1.479.405 2.862 1.11 4.048C.929 12.693 0 16 0 16zm8.118-6.637a501.25 501.25 0 00-1.265-1.26c-.545-.576-.646-1.11-.392-1.298l.52-.298a.675.675 0 00.248-.924l-.78-1.344a.681.681 0 00-.928-.248L5 4.29c-1.685.968.271 4.078 1.09 4.892l.944.94c.818.814 3.943 2.76 4.916 1.084l.3-.517a.674.674 0 00-.249-.924l-1.35-.776a.682.682 0 00-.929.247l-.3.517c-.188.252-.725.152-1.305-.39z" fill="#000"></path>
</svg>